Coordinates
version=1
nRows=20
nColumns=34
inDegrees=yes

Units are S.I. units (second, meters, Newtons, ...)
If the header above contains a line with 'inDegrees', this indicates whether rotational values are in degrees (yes) or radians (no).

endheader
time	pelvis_tilt	pelvis_list	pelvis_rotation	pelvis_tx	pelvis_ty	pelvis_tz	hip_flexion_r	hip_adduction_r	hip_rotation_r	knee_angle_r	ankle_angle_r	subtalar_angle_r	mtp_angle_r	hip_flexion_l	hip_adduction_l	hip_rotation_l	knee_angle_l	ankle_angle_l	subtalar_angle_l	mtp_angle_l	lumbar_extension	lumbar_bending	lumbar_rotation	arm_flex_r	arm_add_r	arm_rot_r	elbow_flex_r	pro_sup_r	arm_flex_l	arm_add_l	arm_rot_l	elbow_flex_l	pro_sup_l
      1.73333330	     -4.91348556	      2.03239501	      1.09964298	     -0.04652733	      1.22145518	     -0.06013353	      1.68588272	     -0.21092171	     -9.76405897	      2.66767982	     14.75086102	      3.12200815	      0.00000000	      2.70348286	      1.04086983	     -9.11997493	      4.33404875	     12.41375886	      3.81549179	      0.00000000	     -0.18800280	     -0.00716045	     -1.38777511	      0.71017424	     -9.24203457	     18.20762650	     29.97137994	     73.38519744	     -1.16065061	    -10.92261578	     22.65019852	     28.88081933	     76.69122690
      1.75000000	     -4.91924718	      2.04330296	      1.11022544	     -0.04538412	      1.22234386	     -0.05985806	      1.67311611	     -0.17571055	     -9.76135176	      2.68017231	     14.74755526	      3.12512312	      0.00000000	      2.71057213	      1.06658084	     -9.12326148	      4.33374224	     12.41305444	      3.81392390	      0.00000000	     -0.18375864	     -0.00688345	     -1.38227552	      0.71873634	     -9.24032059	     18.20658296	     29.97452958	     73.38427445	     -1.16113396	    -10.92259216	     22.64995238	     28.88069891	     76.69191512
      1.76666670	     -4.91143084	      2.04230860	      1.22218993	     -0.04498573	      1.22193923	     -0.05972780	      1.62269023	     -0.13184629	     -9.73163106	      2.71300419	     14.71801843	      3.15295107	      0.00000000	      2.69156333	      1.07526815	     -9.15795718	      4.33911633	     12.38530537	      3.79467054	      0.00000000	     -0.12325348	     -0.02532686	     -1.33773867	      0.76368547	     -9.20030612	     18.20482077	     30.00047021	     73.37884570	     -1.18672160	    -10.92982078	     22.64991167	     28.87393999	     76.69639255
      1.78333330	     -4.93875108	      2.04656645	      1.21919064	     -0.04434872	      1.22171641	     -0.06012194	      1.58774305	     -0.10095861	     -9.73181685	      2.73125332	     14.71249551	      3.15574929	      0.00000000	      2.68853500	      1.09624591	     -9.16495306	      4.34483205	     12.37723497	      3.79157728	      0.00000000	     -0.11364515	     -0.02794103	     -1.33560432	      0.76823153	     -9.19265486	     18.20478449	     30.00430104	     73.37794321	     -1.18623494	    -10.93125400	     22.64972333	     28.87376443	     76.69713232
      1.80000000	     -4.89918077	      2.01943297	      1.16360115	     -0.04403130	      1.22258154	     -0.06049540	      1.38042278	     -0.03370504	     -9.79404106	      2.49603269	     14.48750559	      3.25454168	      0.00000000	      2.52565318	      1.09838589	     -9.45257770	      4.16074633	     11.93240000	      3.62486022	      0.00000000	      0.13379457	     -0.03184337	     -1.32934268	      0.72052519	     -9.03400444	     18.17865615	     30.06606415	     73.31280955	     -1.37051642	    -10.93976565	     22.67152225	     28.79714429	     76.74784601
      1.81666670	     -4.90069340	      2.01458211	      1.17085195	     -0.04542031	      1.22387393	     -0.05999436	      1.38269559	     -0.00160781	     -9.79253335	      2.49411904	     14.48721614	      3.25644145	      0.00000000	      2.52175266	      1.13498826	     -9.45207610	      4.16092240	     11.92952121	      3.62493168	      0.00000000	      0.13931746	     -0.03226926	     -1.32523982	      0.72670027	     -9.03276601	     18.17789900	     30.06833447	     73.31198044	     -1.37241730	    -10.93896922	     22.67178918	     28.79658738	     76.74847820
      1.83333330	     -4.90337493	      2.01395606	      1.17869722	     -0.04419947	      1.22414019	     -0.05975867	      1.37656957	      0.02966241	     -9.78812436	      2.49514669	     14.48497080	      3.26055138	      0.00000000	      2.52527792	      1.16420907	     -9.45098885	      4.15964881	     11.92188123	      3.62529854	      0.00000000	      0.14276980	     -0.03474101	     -1.31791614	      0.74310784	     -9.02677484	     18.17704622	     30.07383713	     73.31102334	     -1.37013103	    -10.93881570	     22.67179591	     28.79632829	     76.74921716
      1.85000000	     -4.91267962	      2.05255820	      1.15180881	     -0.04422720	      1.22373004	     -0.05920815	      1.25984425	      0.06306465	     -9.56621808	      2.21118383	     14.36558218	      3.44622535	      0.00000000	      2.47416693	      1.21017889	     -9.43712130	      4.00909702	     11.43890639	      3.51378868	      0.00000000	      0.17018172	     -0.14615354	     -1.30035843	      0.90690299	     -8.82948567	     18.15444387	     30.12941503	     73.24594969	     -1.34405264	    -11.01402779	     22.68114480	     28.72083280	     76.79913462
      1.86666670	     -4.91358660	      2.05595901	      1.14106251	     -0.04341080	      1.22388786	     -0.06002067	      1.23261415	      0.09363093	     -9.56735433	      2.22640931	     14.36451854	      3.44627332	      0.00000000	      2.49634828	      1.23411671	     -9.43645035	      4.00141598	     11.43541839	      3.51285125	      0.00000000	      0.17267470	     -0.14938116	     -1.29717086	      0.91420680	     -8.82675446	     18.15393467	     30.13148015	     73.24521220	     -1.34295600	    -11.01414465	     22.68124781	     28.72060951	     76.79970514
      1.88333330	     -4.94319930	      2.03717442	      1.12232216	     -0.03977104	      1.22235751	     -0.06232375	      1.18718810	      0.09619596	     -9.57158144	      2.24876346	     14.36308806	      3.44361076	      0.00000000	      2.50408524	      1.24990216	     -9.43833571	      4.00389379	     11.43048373	      3.51000729	      0.00000000	      0.17269082	     -0.15458369	     -1.29228218	      0.92688049	     -8.82060204	     18.15352992	     30.13525259	     73.24444046	     -1.33868534	    -11.01487053	     22.68109880	     28.72081280	     76.80030315
      1.90000000	     -4.92140854	      2.07306243	      1.05637996	     -0.04018719	      1.22331600	     -0.06242887	      1.00810609	      0.02892704	     -9.75199432	      2.15999461	     14.39019854	      3.33535071	      0.00000000	      2.40224181	      1.34897614	     -9.53004067	      3.94577247	     11.41262494	      3.39984920	      0.00000000	      0.34512804	     -0.14247408	     -1.21614115	      1.00854446	     -8.82329122	     18.13940265	     30.16080391	     73.22876843	     -1.43008727	    -10.91502227	     22.70491950	     28.71337253	     76.81419263
      1.91666670	     -4.96779158	      2.04573628	      1.03691551	     -0.04006475	      1.22328798	     -0.06231825	      0.94946194	      0.02566925	     -9.76126186	      2.18154428	     14.38941984	      3.32991969	      0.00000000	      2.41197547	      1.36985736	     -9.53363451	      3.93663370	     11.41221144	      3.39502522	      0.00000000	      0.34438272	     -0.14632028	     -1.21846433	      1.00469274	     -8.82501223	     18.13904561	     30.15894225	     73.22789205	     -1.43037062	    -10.91406616	     22.70528816	     28.71258723	     76.81486687
      1.93333330	     -4.98532151	      2.07654347	      0.89138073	     -0.03929772	      1.22407649	     -0.06278577	      0.81686120	     -0.00209130	     -9.95590418	      2.09089808	     14.38655704	      3.21772636	      0.00000000	      2.29534382	      1.45699583	     -9.59059966	      3.81668151	     11.44916760	      3.28912720	      0.00000000	      0.41195338	     -0.18141953	     -1.21553918	      0.92558236	     -8.87958724	     18.12972609	     30.12491041	     73.21262493	     -1.52365692	    -10.86532668	     22.72012673	     28.68847830	     76.82730429
      1.95000000	     -5.01355872	      2.06410171	      0.89617705	     -0.04067701	      1.22347874	     -0.06282208	      0.76602922	      0.02460085	     -9.95824004	      2.10974293	     14.38261144	      3.21712338	      0.00000000	      2.30397451	      1.49875722	     -9.59478389	      3.80165140	     11.45353407	      3.28218210	      0.00000000	      0.41737997	     -0.18358202	     -1.20811595	      0.92876465	     -8.87935823	     18.12927632	     30.12555361	     73.21162930	     -1.53011449	    -10.86591092	     22.72033474	     28.68617307	     76.82809866
      1.96666670	     -5.03594917	      2.05846018	      0.91019634	     -0.04000823	      1.22303827	     -0.06366826	      0.77404783	      0.05787722	     -9.95715158	      2.10253135	     14.37855614	      3.21850219	      0.00000000	      2.26743565	      1.54221959	     -9.59683505	      3.81136923	     11.45696620	      3.27633082	      0.00000000	      0.41886294	     -0.18834984	     -1.20388187	      0.93377401	     -8.87957450	     18.12855322	     30.12636461	     73.21077851	     -1.52968058	    -10.86774356	     22.71996627	     28.68515132	     76.82872962
      1.98333330	     -5.06623727	      2.12602072	      1.01241795	     -0.03830430	      1.22291540	     -0.06348391	      0.57897178	      0.03870573	     -9.83461365	      1.73264497	     14.19757792	      3.32513217	      0.00000000	      2.08343957	      1.70787575	     -9.47123257	      3.51362062	     11.58803863	      3.10008831	      0.00000000	      0.53315724	     -0.33055412	     -1.24685842	      0.83913190	     -8.95073328	     18.10317142	     30.07824490	     73.17596681	     -1.48955665	    -10.89308680	     22.71381356	     28.65830863	     76.85574320
      2.00000000	     -5.07479275	      2.11962455	      1.02317801	     -0.03861850	      1.22419590	     -0.06403422	      0.60547891	      0.06664383	     -9.83065238	      1.71893262	     14.19316058	      3.32874866	      0.00000000	      2.04506097	      1.74214670	     -9.46531190	      3.53530223	     11.58409274	      3.09984479	      0.00000000	      0.53205058	     -0.33139244	     -1.24145774	      0.83722291	     -8.94559392	     18.10362100	     30.07803831	     73.17519088	     -1.49647350	    -10.89568997	     22.71407678	     28.65493828	     76.85647212
      2.01666670	     -5.08641124	      2.11155941	      1.03797225	     -0.03756225	      1.22279440	     -0.06410648	      0.62983001	      0.08522777	     -9.82233851	      1.70537272	     14.18656308	      3.33540298	      0.00000000	      2.00001000	      1.77393358	     -9.45719409	      3.56098951	     11.58008397	      3.10012469	      0.00000000	      0.52691754	     -0.33162378	     -1.23874608	      0.83458795	     -8.94196730	     18.10383544	     30.07677368	     73.17441075	     -1.49950872	    -10.89797796	     22.71406042	     28.65212267	     76.85715807
      2.03333330	     -4.79752645	      2.14845910	      1.21056765	     -0.03687927	      1.22189420	     -0.06447373	      0.02847918	      0.08702352	     -9.78617069	      1.20882218	     13.79254354	      3.45913892	      0.00000000	      1.53356899	      1.89674838	     -8.52577272	      3.39565467	     11.35315097	      2.25452860	      0.00000000	      0.26217690	     -0.41935199	     -1.14331888	      0.63857798	     -8.86835565	     17.91615279	     29.83197489	     72.92628163	     -1.35646739	    -10.88352017	     22.73171185	     28.36037698	     77.07182911
      2.05000000	     -4.80839625	      2.13308657	      1.21816094	     -0.03740856	      1.22105785	     -0.06413422	      0.05367374	      0.08499012	     -9.78322005	      1.19358185	     13.79681659	      3.45975227	      0.00000000	      1.50308900	      1.91367465	     -8.52349796	      3.40824969	     11.35482370	      2.25358660	      0.00000000	      0.25815540	     -0.41841229	     -1.14333385	      0.63887960	     -8.86796166	     17.91560898	     29.83174911	     72.92550922	     -1.35468412	    -10.88628352	     22.73135524	     28.35947195	     77.07251910
